<?xml version="1.0" encoding="UTF-8"?>
<svg width="40px" height="40px" viewBox="0 0 40 40" version="1.1" xmlns="http://www.w3.org/2000/svg" xmlns:xlink="http://www.w3.org/1999/xlink">
    <!-- Generator: Sketch 59.1 (86144) - https://sketch.com -->
    <title>IC/07 Device_Purple/lock_live </title>
    <desc>Created with Sketch.</desc>
    <defs>
        <linearGradient x1="35.0523287%" y1="1.569545%" x2="61.26973%" y2="88.4572468%" id="linearGradient-1">
            <stop stop-color="#B896FF" offset="0%"></stop>
            <stop stop-color="#FFB8E8" offset="100%"></stop>
        </linearGradient>
    </defs>
    <g id="IC/07-Device_Purple/lock_live-" stroke="none" stroke-width="1" fill="none" fill-rule="evenodd">
        <path d="M1,12 L1,9 C1,5.13400675 4.13400675,2 8,2 C11.8659932,2 15,5.13400675 15,9 L15,22 L13,22 L13,9 C13,6.23857625 10.7614237,4 8,4 C5.23857625,4 3,6.23857625 3,9 L3,12 L1,12 Z" id="Path" fill="#D0A1F7" fill-rule="nonzero"></path>
        <g id="Group-37" transform="translate(8.000000, 14.000000)" fill="#595959" fill-rule="nonzero">
            <g id="Group-6-">
                <path d="M2.55,0 L21.45,0 C22.8583261,0 24,1.14167389 24,2.55 L24,17.45 C24,18.8583261 22.8583261,20 21.45,20 L2.55,20 C1.14167389,20 0,18.8583261 0,17.45 L0,2.55 C0,1.14167389 1.14167389,0 2.55,0 Z" id="Rectangle-9--91"></path>
            </g>
        </g>
        <path d="M20,19.5 C21.3807119,19.5 22.5,20.6192881 22.5,22 C22.5,23.2093254 21.6413382,24.2180997 20.5004345,24.4499027 L20.5,28 C20.5,28.2761424 20.2761424,28.5 20,28.5 C19.7238576,28.5 19.5,28.2761424 19.5,28 L19.500574,24.4501074 C18.3591679,24.2186941 17.5,23.2096818 17.5,22 C17.5,20.6192881 18.6192881,19.5 20,19.5 Z" id="Combined-Shape" fill="url(#linearGradient-1)" fill-rule="nonzero"></path>
        <path d="M21.5213174,3.799492 C21.888522,3.43228739 22.4838783,3.43228739 22.8510829,3.799492 C22.8544715,3.80288059 22.8578342,3.80629504 22.8611705,3.80973504 L25.6169606,6.65110968 C25.9857113,7.03131238 25.9810802,7.63708626 25.6065598,8.01160673 C25.2393552,8.37881133 24.6439989,8.37881133 24.2767942,8.01160673 C24.2734057,8.00821813 24.270043,8.00480369 24.2667066,8.00136368 L21.5109165,5.15998904 C21.1421659,4.77978634 21.1467969,4.17401246 21.5213174,3.799492 Z M18.7545955,9.80942111 C18.8910726,9.30008167 19.4146103,8.99781701 19.9239498,9.1342941 L23.6129123,10.1227486 C24.1222517,10.2592257 24.4245164,10.7827635 24.2880393,11.2921029 C24.1515622,11.8014423 23.6280245,12.103707 23.118685,11.9672299 L19.4297225,10.9787754 C18.9203831,10.8422983 18.6181184,10.3187605 18.7545955,9.80942111 Z M27.5312465,1.0327701 C28.0405859,0.896293005 28.5641237,1.19855766 28.7006008,1.7078971 L29.6890553,5.39685963 C29.8255324,5.90619907 29.5232677,6.42973681 29.0139283,6.5662139 C28.5045889,6.70269099 27.9810511,6.40042634 27.844574,5.8910869 L26.8561195,2.20212436 C26.7196424,1.69278492 27.0219071,1.16924719 27.5312465,1.0327701 Z" id="Shape" fill="#FF6868" transform="translate(24.221825, 6.500000) rotate(-315.000000) translate(-24.221825, -6.500000) "></path>
    </g>
</svg>