<?xml version="1.0" encoding="UTF-8"?>
<svg width="40px" height="40px" viewBox="0 0 40 40" version="1.1" xmlns="http://www.w3.org/2000/svg" xmlns:xlink="http://www.w3.org/1999/xlink">
    <!-- Generator: Sketch 59.1 (86144) - https://sketch.com -->
    <title>IC/07 Device_Blue/vent_color</title>
    <desc>Created with Sketch.</desc>
    <defs>
        <linearGradient x1="0%" y1="100%" x2="100%" y2="0%" id="linearGradient-1">
            <stop stop-color="#CAC7FF" offset="0%"></stop>
            <stop stop-color="#92E3EB" offset="100%"></stop>
        </linearGradient>
    </defs>
    <g id="IC/07-Device_Blue/vent_color" stroke="none" stroke-width="1" fill="none" fill-rule="evenodd">
        <g id="Group" transform="translate(20.000000, 20.000000) rotate(-270.000000) translate(-20.000000, -20.000000) translate(7.000000, 7.000000)">
            <path d="M15.9205148,13.6860682 C18.0906415,14.7615256 19.5831755,16.9973303 19.5831755,19.5851045 L19.5831755,19.5851045 L19.5780804,19.8464544 C19.4629485,22.7941467 17.4087671,25.2444035 14.6527002,25.9575425 L14.6527002,25.9575425 L14.5275096,25.9836917 C13.7368158,26.109602 12.999549,25.4907179 12.999549,24.6700837 L12.999549,24.6700837 L12.999,16 C14.4201608,16 15.6098419,15.013199 15.9207679,13.6878725 Z M10,13 C10,14.4201608 10.986801,15.6098419 12.3121275,15.9207679 L12.2197473,16.1013336 C11.1122408,18.174077 8.93002749,19.5851045 6.41592247,19.5851045 L6.41592247,19.5851045 L6.15445192,19.5799996 C3.2053936,19.4646477 0.75384989,17.4066556 0.0420446777,14.6532956 L0.0420446777,14.6532956 L0.0160820616,14.5282929 C-0.108770875,13.7386652 0.508873614,13.0001599 1.32951555,13.0001599 L1.32951555,13.0001599 Z M13,11 L13.0009289,12.9532429 L13.0023088,12.9546228 L13.0036888,12.9560027 L13.0094081,12.7212206 C13.0341115,12.1317332 13.1361558,11.5622585 13.3056762,11.022729 C14.2656563,11.1709312 15,11.999708 15,13 L15,13 L13.0478464,13.0001599 L13.0533661,13.0042996 L13.2877923,13.0103691 C13.8738428,13.0358206 14.4400915,13.1377633 14.9767464,13.3064838 C14.8284869,14.2661718 13.9999409,15 13,15 C12.9996653,15 12.9993306,14.9999999 12.9989959,14.9999998 L12.999549,13.0691555 L12.9957542,13.0658782 L12.9940293,13.0636359 L12.9876114,13.29779 C12.9614448,13.8802523 12.8597604,14.4431115 12.6921036,14.9767386 C11.733313,14.8279051 11,13.9995898 11,13 L11,13 L12.9540114,13.0001599 L12.9581512,12.9960202 L12.723277,12.9903851 C12.1331929,12.9658648 11.5631473,12.8638015 11.0230973,12.6941151 C11.1709312,11.7343437 11.999708,11 13,11 L13,11 Z M19.5831755,6.41659521 L19.8446461,6.42169354 C22.7937055,6.53689771 25.2452875,8.59232367 25.9584332,11.3470242 L25.9584332,11.3470242 L25.984199,11.4720269 C26.1078689,12.2616546 25.4902244,13.0001599 24.6695824,13.0001599 L24.6695824,13.0001599 L16,13 C16,11.5791306 15.012214,10.3889709 13.6858882,10.0787673 C14.7597811,7.90891342 16.9954127,6.41659521 19.5831755,6.41659521 L19.5831755,6.41659521 Z M11.67758,3.55271368e-15 L11.809085,0.00672235913 C12.4598416,0.0734372422 12.999549,0.629067816 12.999549,1.33023608 L12.999549,1.33023608 L13,10 C11.5791306,10 10.3889709,10.987786 10.0787673,12.3141118 C7.90856128,11.2394897 6.41592247,9.00300342 6.41592247,6.41659521 L6.41592247,6.41659521 L6.42101756,6.15512712 C6.5361495,3.2060965 8.59033087,0.754575827 11.3463978,0.0427773014 C11.4581718,0.0137991295 11.5685658,3.55271368e-15 11.67758,3.55271368e-15 L11.67758,3.55271368e-15 Z" id="Combined-Shape" fill="url(#linearGradient-1)" fill-rule="nonzero"></path>
            <circle id="Oval" fill="#595959" cx="13" cy="13" r="2"></circle>
        </g>
    </g>
</svg>