<?xml version="1.0" encoding="UTF-8"?>
<svg width="40px" height="40px" viewBox="0 0 40 40" version="1.1" xmlns="http://www.w3.org/2000/svg" xmlns:xlink="http://www.w3.org/1999/xlink">
    <!-- Generator: Sketch 59.1 (86144) - https://sketch.com -->
    <title>IC/07 Device_Purple/shade_live </title>
    <desc>Created with Sketch.</desc>
    <defs>
        <linearGradient x1="0%" y1="47.8298611%" x2="100%" y2="52.1701389%" id="linearGradient-1">
            <stop stop-color="#B896FF" offset="0%"></stop>
            <stop stop-color="#FFB8E8" offset="100%"></stop>
        </linearGradient>
    </defs>
    <g id="IC/07-Device_Purple/shade_live-" stroke="none" stroke-width="1" fill="none" fill-rule="evenodd">
        <rect id="Rectangle" fill="#595959" fill-rule="nonzero" transform="translate(20.000000, 8.000000) scale(-1, 1) translate(-20.000000, -8.000000) " x="6" y="7" width="28" height="2" rx="1"></rect>
        <path d="M32,13 C32.5522847,13 33,13.4477153 33,14 C33,14.5522847 32.5522847,15 32,15 L10,15 C9.44771525,15 9,14.5522847 9,14 C9,13.4477153 9.44771525,13 10,13 L32,13 Z M32,10 C32.5522847,10 33,10.4477153 33,11 C33,11.5522847 32.5522847,12 32,12 L10,12 C9.44771525,12 9,11.5522847 9,11 C9,10.4477153 9.44771525,10 10,10 L32,10 Z" id="Shape" fill="url(#linearGradient-1)" fill-rule="nonzero"></path>
        <polygon id="Path" fill="#595959" fill-rule="nonzero" points="8 9 8 31 7 31 7 9"></polygon>
        <circle id="Oval" fill="#595959" transform="translate(7.500000, 31.500000) scale(-1, 1) translate(-7.500000, -31.500000) " cx="7.5" cy="31.5" r="1.5"></circle>
    </g>
</svg>