<?xml version="1.0" encoding="UTF-8"?>
<svg width="44px" height="44px" viewBox="0 0 44 44" version="1.1" xmlns="http://www.w3.org/2000/svg" xmlns:xlink="http://www.w3.org/1999/xlink">
    <!-- Generator: Sketch 55.2 (78181) - https://sketchapp.com -->
    <title>SVG_mdpi/device_sac_ic</title>
    <desc>Created with Sketch.</desc>
    <g id="symbol" stroke="none" stroke-width="1" fill="none" fill-rule="evenodd">
        <g id="device/ic/sac" fill="#3695DD">
            <path d="M20.863,20.915 L22.892,20.915 L22.892,12 L20.863,12 L20.863,20.915 Z M21.877,32.476 C16.431,32.476 12,27.998 12,22.496 C12,18.636 14.237,15.086 17.7,13.452 L18.155,13.237 L19.013,15.087 L18.564,15.299 C15.81,16.599 14.031,19.424 14.031,22.496 C14.031,26.872 17.551,30.434 21.877,30.434 C26.204,30.434 29.724,26.872 29.724,22.496 C29.724,19.424 27.944,16.599 25.19,15.299 L24.742,15.087 L25.599,13.237 L26.055,13.452 C29.517,15.086 31.754,18.636 31.754,22.496 C31.754,27.998 27.323,32.476 21.877,32.476 L21.877,32.476 Z" id="Fill-1"></path>
        </g>
    </g>
</svg>