<?xml version="1.0" encoding="UTF-8"?>
<svg width="24px" height="24px" viewBox="0 0 24 24" version="1.1" xmlns="http://www.w3.org/2000/svg" xmlns:xlink="http://www.w3.org/1999/xlink">
    <!-- Generator: Sketch 55.2 (78181) - https://sketchapp.com -->
    <title>SVG_mdpi/ic_info_bixby</title>
    <desc>Created with Sketch.</desc>
    <defs>
        <linearGradient x1="50.7578127%" y1="100.25%" x2="50.7578127%" y2="-0.749999995%" id="linearGradient-1">
            <stop stop-color="#3061AC" offset="0%"></stop>
            <stop stop-color="#4F8ECB" offset="30%"></stop>
            <stop stop-color="#00A9E5" offset="60%"></stop>
            <stop stop-color="#5EC1CB" offset="100%"></stop>
        </linearGradient>
        <path d="M5.22547208,5 C5.10277769,5 5.00300629,5.09801772 5,5.22002317 L5,5.22002317 L5.00212946,12.0890928 C5.09476091,15.8691949 8.14633764,18.9715655 11.9468575,19 L11.9468575,19 C11.9518053,19 11.9567532,19 11.9616384,19 L11.9616384,19 L12.0389252,19 C15.88717,18.9790186 19,15.8532239 19,11.9999687 L19,11.9999687 C19,8.1854821 15.948799,5.08361256 12.1538534,5.00175367 L12.1538534,5.00175367 L12.1523502,5.00162841 C12.0103028,4.99862212 11.8936837,5.11292393 11.8936837,5.25503398 L11.8936837,5.25503398 L11.8936837,10.8606457 C11.8936837,10.9850938 11.9945198,11.0861804 12.1192184,11.0861804 L12.1192184,11.0861804 L14.1529139,11.0861804 C15.9187361,11.0861804 17.3358908,12.5782419 17.2123195,14.3704318 L17.2123195,14.3704318 C17.1079134,15.8826606 15.8826606,17.1079134 14.3704945,17.2122569 L14.3704945,17.2122569 C12.5782419,17.3357655 11.0860552,15.9186108 11.0860552,14.1530392 L11.0860552,14.1530392 L11.0860552,13.8276704 L11.0860552,11.0861804 L11.0860552,5.22553471 C11.0860552,5.10102402 10.9850938,5 10.8604578,5 L10.8604578,5 L5.22547208,5 Z" id="path-2"></path>
    </defs>
    <g id="symbol" stroke="none" stroke-width="1" fill="none" fill-rule="evenodd">
        <g id="ic/ic_info_bixby">
            <mask id="mask-3" fill="white">
                <use xlink:href="#path-2"></use>
            </mask>
            <use id="Clip-2" fill="url(#linearGradient-1)" xlink:href="#path-2"></use>
        </g>
    </g>
</svg>