<?xml version="1.0" encoding="UTF-8"?>
<svg width="61px" height="61px" viewBox="0 0 61 61" version="1.1" xmlns="http://www.w3.org/2000/svg" xmlns:xlink="http://www.w3.org/1999/xlink">
    <!-- Generator: Sketch 55.2 (78181) - https://sketchapp.com -->
    <title>SVG_mdpi/device_ic_control</title>
    <desc>Created with Sketch.</desc>
    <g id="symbol" stroke="none" stroke-width="1" fill="none" fill-rule="evenodd">
        <g id="device/ic/control" fill="#505050" fill-rule="nonzero">
            <path d="M29.7862297,16.5 L32.2137703,16.5 L32.2137703,28.4730815 L29.7862297,28.4730815 L29.7862297,16.5 Z M31,44.5 C23.5545059,44.5 17.5,38.3784656 17.5,30.8570413 C17.5,25.5806104 20.5569387,20.7282927 25.2914233,18.493115 L25.7467051,18.2780189 L26.7736132,20.4928758 L26.3246053,20.7048727 C22.4406351,22.5386702 19.9286846,26.5250383 19.9286846,30.8570413 C19.9286846,37.0328777 24.8969952,42.0561126 31,42.0561126 C37.1030048,42.0561126 42.0713154,37.0328777 42.0713154,30.8570413 C42.0713154,26.5252743 39.5595719,22.5387446 35.6764894,20.7048494 L35.2278766,20.4929794 L36.2529669,18.2780189 L36.7085767,18.493115 C41.4430613,20.7282927 44.5,25.5806104 44.5,30.8570413 C44.5,38.3784656 38.4454941,44.5 31,44.5 Z" id="ic_control_off"></path>
        </g>
    </g>
</svg>