<?xml version="1.0" encoding="UTF-8"?>
<svg width="24px" height="24px" viewBox="0 0 24 24" version="1.1" xmlns="http://www.w3.org/2000/svg" xmlns:xlink="http://www.w3.org/1999/xlink">
    <title>SVG/ic/ic_function_graph</title>
    <defs>
        <path d="M10.1368232,5 C10.7132211,5 11.1819202,5.46817625 11.1819202,6.04352854 L11.1819202,6.04352854 L11.1819202,19.8925011 L9.09068061,19.8925011 L9.09068061,6.04352854 C9.09068061,5.46817625 9.55990248,5 10.1368232,5 Z M6.40890115,9.18538992 C6.98556045,9.18538992 7.45452092,9.65382758 7.45452092,10.2294413 L7.45452092,10.2294413 L7.45452092,19.8925272 L5.36328137,19.8925272 L5.36328137,10.2294413 C5.36328137,9.65382758 5.83224184,9.18538992 6.40890115,9.18538992 Z M17.5910989,8.7444167 C18.1677582,8.7444167 18.6367186,9.21285436 18.6367186,9.78846804 L18.6367186,9.78846804 L18.6367186,19.8922919 L16.5454791,19.8922919 L16.5454791,9.78846804 C16.5454791,9.21285436 17.0144395,8.7444167 17.5910989,8.7444167 Z M13.8642224,11.4893562 C14.4406203,11.4893562 14.9093194,11.9577939 14.9093194,12.5334076 L14.9093194,12.5334076 L14.9093194,19.8923442 L12.8180798,19.8923442 L12.8180798,12.5334076 C12.8180798,11.9577939 13.2873017,11.4893562 13.8642224,11.4893562 Z" id="path-1"></path>
    </defs>
    <g id="Symbols" stroke="none" stroke-width="1" fill="none" fill-rule="evenodd">
        <g id="ic/ic_function_graph">
            <mask id="mask-2" fill="white">
                <use xlink:href="#path-1"></use>
            </mask>
            <use id="Combined-Shape" fill="#252525" xlink:href="#path-1"></use>
        </g>
    </g>
</svg>