<?xml version="1.0" encoding="utf-8"?>
<!-- Generator: Adobe Illustrator 16.0.0, SVG Export Plug-In . SVG Version: 6.00 Build 0)  -->
<!DOCTYPE svg PUBLIC "-//W3C//DTD SVG 1.1//EN" "http://www.w3.org/Graphics/SVG/1.1/DTD/svg11.dtd">
<svg version="1.1" id="Layer_1" xmlns="http://www.w3.org/2000/svg" xmlns:xlink="http://www.w3.org/1999/xlink" x="0px" y="0px"
	 width="128px" height="128px" viewBox="0 0 128 128" enable-background="new 0 0 128 128" xml:space="preserve">
<g>
	<g>
		<path fill="#3695DD" d="M63.938,23.933c-22.852,0-41.379,18.526-41.379,41.379c0,22.856,18.528,41.379,41.379,41.379
			c22.856,0,41.379-18.524,41.379-41.379S86.794,23.933,63.938,23.933z M63.938,100.858c-19.63,0-35.547-15.913-35.547-35.547
			c0-19.634,15.917-35.548,35.547-35.548c19.633,0,35.548,15.914,35.548,35.548C99.485,84.945,83.572,100.858,63.938,100.858z
			 M63.937,41.92c-12.92,0-23.393,10.466-23.393,23.392c0,12.921,10.471,23.392,23.393,23.392c12.921,0,23.393-10.471,23.393-23.392
			C87.329,52.387,76.857,41.92,63.937,41.92z"/>
	</g>
</g>
</svg>
