<?xml version="1.0" encoding="UTF-8"?>
<svg width="30px" height="30px" viewBox="0 0 30 30" version="1.1" xmlns="http://www.w3.org/2000/svg" xmlns:xlink="http://www.w3.org/1999/xlink">
    <title>SVG/handler/small</title>
    <g id="handler/small" stroke="none" stroke-width="1" fill="none" fill-rule="evenodd">
        <path d="M15,6.875 C17.2436568,6.875 19.2749068,7.7844216 20.7452426,9.2547574 C22.2155784,10.7250932 23.125,12.7563432 23.125,15 C23.125,17.2436568 22.2155784,19.2749068 20.7452426,20.7452426 C19.2749068,22.2155784 17.2436568,23.125 15,23.125 C12.7563432,23.125 10.7250932,22.2155784 9.2547574,20.7452426 C7.7844216,19.2749068 6.875,17.2436568 6.875,15 C6.875,12.7563432 7.7844216,10.7250932 9.2547574,9.2547574 C10.7250932,7.7844216 12.7563432,6.875 15,6.875 Z M15,9.125 C13.3776635,9.125 11.9089135,9.78258177 10.8457477,10.8457477 C9.78258177,11.9089135 9.125,13.3776635 9.125,15 C9.125,16.6223365 9.78258177,18.0910865 10.8457477,19.1542523 C11.9089135,20.2174182 13.3776635,20.875 15,20.875 C16.6223365,20.875 18.0910865,20.2174182 19.1542523,19.1542523 C20.2174182,18.0910865 20.875,16.6223365 20.875,15 C20.875,13.3776635 20.2174182,11.9089135 19.1542523,10.8457477 C18.0910865,9.78258177 16.6223365,9.125 15,9.125 Z" id="Oval" stroke="#979797" stroke-width="0.25" fill="#FFFFFF" fill-rule="nonzero"></path>
    </g>
</svg>