<?xml version="1.0" encoding="UTF-8"?>
<svg width="40px" height="40px" viewBox="0 0 40 40" version="1.1" xmlns="http://www.w3.org/2000/svg" xmlns:xlink="http://www.w3.org/1999/xlink">
    <!-- Generator: Sketch 59.1 (86144) - https://sketch.com -->
    <title>IC/07 Device_Purple/accessory_color</title>
    <desc>Created with Sketch.</desc>
    <defs>
        <linearGradient x1="4.62274213%" y1="0%" x2="92.0432144%" y2="100%" id="linearGradient-1">
            <stop stop-color="#B896FF" offset="0%"></stop>
            <stop stop-color="#FFB8E8" offset="100%"></stop>
        </linearGradient>
    </defs>
    <g id="IC/07-Device_Purple/accessory_color" stroke="none" stroke-width="1" fill="none" fill-rule="evenodd">
        <g id="Group" transform="translate(8.000000, 8.000000)">
            <path d="M18.4615385,12.9230769 C21.5202661,12.9230769 24,15.4028108 24,18.4588441 C24,21.5202661 21.5202661,24 18.4615385,24 C15.4028108,24 12.9230769,21.5202661 12.9230769,18.4588441 C12.9230769,15.4028108 15.4028108,12.9230769 18.4615385,12.9230769" id="Fill-47" fill="#595959"></path>
            <path d="M5.53846154,0 C8.59718919,0 11.0769231,2.47973389 11.0769231,5.53576715 C11.0769231,8.59718919 8.59718919,11.0769231 5.53846154,11.0769231 C2.47973389,11.0769231 0,8.59718919 0,5.53576715 C0,2.47973389 2.47973389,0 5.53846154,0" id="Fill-47-" fill="url(#linearGradient-1)"></path>
            <path d="M21.9909502,10.1538462 L14.9321267,10.1538462 C14.3323982,10.1538462 13.8461538,9.66760181 13.8461538,9.0678733 L13.8461538,2.00904977 C13.8461538,1.40932127 14.3323982,0.923076923 14.9321267,0.923076923 L21.9909502,0.923076923 C22.5906787,0.923076923 23.0769231,1.40932127 23.0769231,2.00904977 L23.0769231,9.0678733 C23.0769231,9.66760181 22.5906787,10.1538462 21.9909502,10.1538462" id="Fill-58" fill="#595959"></path>
            <path d="M9.0678733,23.0769231 L2.00904977,23.0769231 C1.40932127,23.0769231 0.923076923,22.5906787 0.923076923,21.9909502 L0.923076923,14.9321267 C0.923076923,14.3323982 1.40932127,13.8461538 2.00904977,13.8461538 L9.0678733,13.8461538 C9.66760181,13.8461538 10.1538462,14.3323982 10.1538462,14.9321267 L10.1538462,21.9909502 C10.1538462,22.5906787 9.66760181,23.0769231 9.0678733,23.0769231" id="Fill-60" fill="#595959"></path>
        </g>
    </g>
</svg>