<?xml version="1.0" encoding="UTF-8"?>
<svg width="36px" height="36px" viewBox="0 0 36 36" version="1.1" xmlns="http://www.w3.org/2000/svg" xmlns:xlink="http://www.w3.org/1999/xlink">
    <!-- Generator: Sketch 55.2 (78181) - https://sketchapp.com -->
    <title>SVG_mdpi/device_ic_info_alert_red</title>
    <desc>Created with Sketch.</desc>
    <g id="symbol" stroke="none" stroke-width="1" fill="none" fill-rule="evenodd">
        <g id="ic/ic_info_alert_red" fill="#DF3600">
            <path d="M17.215294,19.7786311 L17.215294,9.94898519 L18.7831998,9.94898519 L18.7831998,19.7786311 L17.215294,19.7786311 Z M18.0001506,22.6327482 C18.778832,22.6327482 19.4099103,23.272719 19.4099103,24.0604925 C19.4099103,24.848266 18.778832,25.4882367 18.0001506,25.4882367 C17.2199631,25.4882367 16.5888848,24.848266 16.5888848,24.0604925 C16.5888848,23.272719 17.2199631,22.6327482 18.0001506,22.6327482 Z M30.5876777,27.4762601 C31.4160621,27.4762601 31.7338605,26.8957152 31.2940637,26.1856525 L18.8005206,6.05552508 C18.5806222,5.70049369 18.2899345,5.52373987 18.0007531,5.52373987 C17.7100655,5.52373987 17.4193778,5.70049369 17.1994794,6.05552508 L4.70593632,26.1856525 C4.2661395,26.8957152 4.58393789,27.4762601 5.4123223,27.4762601 L30.5876777,27.4762601 Z M32.5682695,25.3750229 C33.0788556,26.1978424 33.1391017,27.0938014 32.7354526,27.834339 C32.3287911,28.5764003 31.5470975,29 30.5876777,29 L5.4123223,29 C4.45290253,29 3.67120888,28.5764003 3.26454744,27.834339 C2.86089831,27.0938014 2.92114445,26.1978424 3.43173047,25.3750229 L15.9237674,5.24641921 C16.4147735,4.45407448 17.1723687,4 18.0007531,4 C18.8276313,4 19.5852265,4.45407448 20.0762326,5.24641921 L32.5682695,25.3750229 Z" id="Combined-Shape"></path>
        </g>
    </g>
</svg>