<?xml version="1.0" encoding="UTF-8"?>
<svg width="40px" height="40px" viewBox="0 0 40 40" version="1.1" xmlns="http://www.w3.org/2000/svg" xmlns:xlink="http://www.w3.org/1999/xlink">
    <!-- Generator: Sketch 59.1 (86144) - https://sketch.com -->
    <title>IC/07 Device_Blue/system_ac_color </title>
    <desc>Created with Sketch.</desc>
    <defs>
        <path d="M4.22368421,0 C3.98371053,0 3.78947368,0.211894737 3.78947368,0.473368421 L3.78947368,0.473368421 C3.78947368,0.735157895 3.98371053,0.947368421 4.22368421,0.947368421 L4.22368421,0.947368421 L13.7763158,0.947368421 C14.0162895,0.947368421 14.2105263,0.735157895 14.2105263,0.473368421 L14.2105263,0.473368421 C14.2105263,0.211894737 14.0162895,0 13.7763158,0 L13.7763158,0 L4.22368421,0 Z M17.0526316,4.22368421 L17.0526316,13.7766053 C17.0526316,14.0162895 17.2648421,14.2105263 17.5263158,14.2105263 L17.5263158,14.2105263 C17.7881053,14.2105263 18,14.0162895 18,13.7766053 L18,13.7766053 L18,4.22368421 C18,3.984 17.7881053,3.78947368 17.5263158,3.78947368 L17.5263158,3.78947368 C17.2648421,3.78947368 17.0526316,3.984 17.0526316,4.22368421 L17.0526316,4.22368421 Z M4.70884211,3.78947368 C4.20139474,3.78947368 3.78947368,4.20139474 3.78947368,4.70913158 L3.78947368,4.70913158 L3.78947368,13.2911579 C3.78947368,13.7988947 4.20139474,14.2105263 4.70884211,14.2105263 L4.70884211,14.2105263 L13.2911579,14.2105263 C13.7988947,14.2105263 14.2105263,13.7988947 14.2105263,13.2911579 L14.2105263,13.2911579 L14.2105263,4.70913158 C14.2105263,4.20139474 13.7988947,3.78947368 13.2911579,3.78947368 L13.2911579,3.78947368 L4.70884211,3.78947368 Z M0,4.22368421 L0,13.7766053 C0,14.0162895 0.211894737,14.2105263 0.473684211,14.2105263 L0.473684211,14.2105263 C0.735473684,14.2105263 0.947368421,14.0162895 0.947368421,13.7766053 L0.947368421,13.7766053 L0.947368421,4.22368421 C0.947368421,3.984 0.735473684,3.78947368 0.473684211,3.78947368 L0.473684211,3.78947368 C0.211894737,3.78947368 0,3.984 0,4.22368421 L0,4.22368421 Z M4.22368421,17.0526316 C3.98371053,17.0526316 3.78947368,17.2648421 3.78947368,17.5266316 L3.78947368,17.5266316 C3.78947368,17.7881053 3.98371053,18 4.22368421,18 L4.22368421,18 L13.7763158,18 C14.0162895,18 14.2105263,17.7881053 14.2105263,17.5266316 L14.2105263,17.5266316 C14.2105263,17.2648421 14.0162895,17.0526316 13.7763158,17.0526316 L13.7763158,17.0526316 L4.22368421,17.0526316 Z" id="path-1"></path>
        <linearGradient x1="0%" y1="0%" x2="100%" y2="100%" id="linearGradient-3">
            <stop stop-color="#CAC6FF" offset="0%"></stop>
            <stop stop-color="#91E2EB" offset="100%"></stop>
        </linearGradient>
    </defs>
    <g id="IC/07-Device_Blue/system_ac_color-" stroke="none" stroke-width="1" fill="none" fill-rule="evenodd">
        <g id="Group-123" transform="translate(8.000000, 8.000000)">
            <path d="M21.3658537,24 L2.63414634,24 C1.17921951,24 0,22.8204878 0,21.3658537 L0,2.63414634 C0,1.1795122 1.17921951,0 2.63414634,0 L21.3658537,0 C22.8207805,0 24,1.1795122 24,2.63414634 L24,21.3658537 C24,22.8204878 22.8207805,24 21.3658537,24" id="Fill-31" fill="#595959"></path>
            <g id="Group-35" transform="translate(3.000000, 3.000000)">
                <mask id="mask-2" fill="white">
                    <use xlink:href="#path-1"></use>
                </mask>
                <g id="Clip-34"></g>
                <path d="M4.22368421,0 C3.98371053,0 3.78947368,0.211894737 3.78947368,0.473368421 L3.78947368,0.473368421 C3.78947368,0.735157895 3.98371053,0.947368421 4.22368421,0.947368421 L4.22368421,0.947368421 L13.7763158,0.947368421 C14.0162895,0.947368421 14.2105263,0.735157895 14.2105263,0.473368421 L14.2105263,0.473368421 C14.2105263,0.211894737 14.0162895,0 13.7763158,0 L13.7763158,0 L4.22368421,0 Z M17.0526316,4.22368421 L17.0526316,13.7766053 C17.0526316,14.0162895 17.2648421,14.2105263 17.5263158,14.2105263 L17.5263158,14.2105263 C17.7881053,14.2105263 18,14.0162895 18,13.7766053 L18,13.7766053 L18,4.22368421 C18,3.984 17.7881053,3.78947368 17.5263158,3.78947368 L17.5263158,3.78947368 C17.2648421,3.78947368 17.0526316,3.984 17.0526316,4.22368421 L17.0526316,4.22368421 Z M4.70884211,3.78947368 C4.20139474,3.78947368 3.78947368,4.20139474 3.78947368,4.70913158 L3.78947368,4.70913158 L3.78947368,13.2911579 C3.78947368,13.7988947 4.20139474,14.2105263 4.70884211,14.2105263 L4.70884211,14.2105263 L13.2911579,14.2105263 C13.7988947,14.2105263 14.2105263,13.7988947 14.2105263,13.2911579 L14.2105263,13.2911579 L14.2105263,4.70913158 C14.2105263,4.20139474 13.7988947,3.78947368 13.2911579,3.78947368 L13.2911579,3.78947368 L4.70884211,3.78947368 Z M0,4.22368421 L0,13.7766053 C0,14.0162895 0.211894737,14.2105263 0.473684211,14.2105263 L0.473684211,14.2105263 C0.735473684,14.2105263 0.947368421,14.0162895 0.947368421,13.7766053 L0.947368421,13.7766053 L0.947368421,4.22368421 C0.947368421,3.984 0.735473684,3.78947368 0.473684211,3.78947368 L0.473684211,3.78947368 C0.211894737,3.78947368 0,3.984 0,4.22368421 L0,4.22368421 Z M4.22368421,17.0526316 C3.98371053,17.0526316 3.78947368,17.2648421 3.78947368,17.5266316 L3.78947368,17.5266316 C3.78947368,17.7881053 3.98371053,18 4.22368421,18 L4.22368421,18 L13.7763158,18 C14.0162895,18 14.2105263,17.7881053 14.2105263,17.5266316 L14.2105263,17.5266316 C14.2105263,17.2648421 14.0162895,17.0526316 13.7763158,17.0526316 L13.7763158,17.0526316 L4.22368421,17.0526316 Z" id="Fill-33" fill="url(#linearGradient-3)" mask="url(#mask-2)"></path>
            </g>
        </g>
    </g>
</svg>