<?xml version="1.0" encoding="UTF-8"?>
<svg width="40px" height="40px" viewBox="0 0 40 40" version="1.1" xmlns="http://www.w3.org/2000/svg" xmlns:xlink="http://www.w3.org/1999/xlink">
    <!-- Generator: Sketch 59.1 (86144) - https://sketch.com -->
    <title>IC/07 Device_Purple/shade_color</title>
    <desc>Created with Sketch.</desc>
    <defs>
        <linearGradient x1="100%" y1="15.2777778%" x2="0%" y2="84.7222222%" id="linearGradient-1">
            <stop stop-color="#B896FF" offset="0%"></stop>
            <stop stop-color="#FFB8E8" offset="100%"></stop>
        </linearGradient>
    </defs>
    <g id="IC/07-Device_Purple/shade_color" stroke="none" stroke-width="1" fill="none" fill-rule="evenodd">
        <g id="Group" transform="translate(20.000000, 20.000000) scale(-1, 1) translate(-20.000000, -20.000000) translate(6.000000, 7.000000)">
            <rect id="Rectangle" fill="#595959" fill-rule="nonzero" x="0" y="0" width="28" height="2" rx="1"></rect>
            <path d="M24,21 C24.5522847,21 25,21.4477153 25,22 C25,22.5522847 24.5522847,23 24,23 L2,23 C1.44771525,23 1,22.5522847 1,22 C1,21.4477153 1.44771525,21 2,21 L24,21 Z M24,18 C24.5522847,18 25,18.4477153 25,19 C25,19.5522847 24.5522847,20 24,20 L2,20 C1.44771525,20 1,19.5522847 1,19 C1,18.4477153 1.44771525,18 2,18 L24,18 Z M24,15 C24.5522847,15 25,15.4477153 25,16 C25,16.5522847 24.5522847,17 24,17 L2,17 C1.44771525,17 1,16.5522847 1,16 C1,15.4477153 1.44771525,15 2,15 L24,15 Z M24,12 C24.5522847,12 25,12.4477153 25,13 C25,13.5522847 24.5522847,14 24,14 L2,14 C1.44771525,14 1,13.5522847 1,13 C1,12.4477153 1.44771525,12 2,12 L24,12 Z M24,9 C24.5522847,9 25,9.44771525 25,10 C25,10.5522847 24.5522847,11 24,11 L2,11 C1.44771525,11 1,10.5522847 1,10 C1,9.44771525 1.44771525,9 2,9 L24,9 Z M24,6 C24.5522847,6 25,6.44771525 25,7 C25,7.55228475 24.5522847,8 24,8 L2,8 C1.44771525,8 1,7.55228475 1,7 C1,6.44771525 1.44771525,6 2,6 L24,6 Z M24,3 C24.5522847,3 25,3.44771525 25,4 C25,4.55228475 24.5522847,5 24,5 L2,5 C1.44771525,5 1,4.55228475 1,4 C1,3.44771525 1.44771525,3 2,3 L24,3 Z" id="Combined-Shape" fill="url(#linearGradient-1)" fill-rule="nonzero"></path>
            <polygon id="Line-5--2" fill="#595959" fill-rule="nonzero" points="26 2 27 2 27 24 26 24"></polygon>
            <circle id="Oval" fill="#595959" cx="26.5" cy="24.5" r="1.5"></circle>
        </g>
    </g>
</svg>